<?xml version="1.0" encoding="UTF-8" standalone="no"?>
<svg
   height="128px"
   viewBox="0 0 128 128"
   width="128px"
   version="1.1"
   id="svg26"
   sodipodi:docname="scholarsync.svg"
   inkscape:version="1.3.2 (091e20ef0f, 2023-11-25)"
   xmlns:inkscape="http://www.inkscape.org/namespaces/inkscape"
   xmlns:sodipodi="http://sodipodi.sourceforge.net/DTD/sodipodi-0.dtd"
   xmlns:xlink="http://www.w3.org/1999/xlink"
   xmlns="http://www.w3.org/2000/svg"
   xmlns:svg="http://www.w3.org/2000/svg">
  <defs
     id="defs26">
    <linearGradient
       id="linearGradient28"
       gradientUnits="userSpaceOnUse">
      <stop
         offset="0"
         stop-color="#e66100"
         id="stop26"
         style="stop-color:#0045e6;stop-opacity:1;" />
      <stop
         offset="0.5"
         stop-color="#ff7800"
         id="stop27"
         style="stop-color:#004cff;stop-opacity:1;" />
      <stop
         offset="1"
         stop-color="#c64600"
         id="stop28"
         style="stop-color:#003bc6;stop-opacity:1;" />
    </linearGradient>
  </defs>
  <sodipodi:namedview
     id="namedview26"
     pagecolor="#ffffff"
     bordercolor="#000000"
     borderopacity="0.25"
     inkscape:showpageshadow="2"
     inkscape:pageopacity="0.0"
     inkscape:pagecheckerboard="0"
     inkscape:deskcolor="#d1d1d1"
     inkscape:zoom="3.1445313"
     inkscape:cx="-53.585092"
     inkscape:cy="27.190062"
     inkscape:window-width="1920"
     inkscape:window-height="1011"
     inkscape:window-x="0"
     inkscape:window-y="0"
     inkscape:window-maximized="1"
     inkscape:current-layer="svg26" />
  <linearGradient
     id="a"
     gradientUnits="userSpaceOnUse">
    <stop
       offset="0"
       stop-color="#e66100"
       id="stop1"
       style="stop-color:#0045e6;stop-opacity:1;" />
    <stop
       offset="0.5"
       stop-color="#ff7800"
       id="stop2"
       style="stop-color:#004cff;stop-opacity:1;" />
    <stop
       offset="1"
       stop-color="#c64600"
       id="stop3"
       style="stop-color:#003bc6;stop-opacity:1;" />
  </linearGradient>
  <linearGradient
     id="b"
     x1="84"
     x2="92"
     xlink:href="#linearGradient28"
     y1="70"
     y2="70"
     gradientTransform="translate(10.519254,0.64099378)" />
  <linearGradient
     id="c"
     gradientTransform="matrix(0.707107 -0.707107 0.707107 0.707107 -137.567063 -42.11627)"
     gradientUnits="userSpaceOnUse"
     x1="51"
     x2="125"
     y1="231"
     y2="231">
    <stop
       offset="0"
       stop-color="#ffffff"
       stop-opacity="0"
       id="stop4" />
    <stop
       offset="0.5"
       stop-color="#ffffff"
       stop-opacity="0.25098"
       id="stop5" />
    <stop
       offset="1"
       stop-color="#ffffff"
       stop-opacity="0"
       id="stop6" />
  </linearGradient>
  <linearGradient
     id="d"
     gradientUnits="userSpaceOnUse"
     x1="81.999994"
     x2="88.000001"
     y1="74.999992"
     y2="74.999992"
     gradientTransform="translate(10.519254,0.64099378)">
    <stop
       offset="0"
       stop-color="#f6f5f4"
       id="stop7" />
    <stop
       offset="0.5"
       stop-color="#ffffff"
       id="stop8" />
    <stop
       offset="1"
       stop-color="#dddcd9"
       id="stop9" />
  </linearGradient>
  <linearGradient
     id="e"
     x1="84"
     x2="92"
     xlink:href="#a"
     y1="56"
     y2="56"
     gradientTransform="translate(10.519254,0.64099378)" />
  <linearGradient
     id="f"
     gradientUnits="userSpaceOnUse"
     x1="12"
     x2="20"
     y1="54"
     y2="54"
     gradientTransform="translate(10.519254,0.64099378)">
    <stop
       offset="0"
       stop-color="#ff7700"
       id="stop10"
       style="stop-color:#2443a1;stop-opacity:1;" />
    <stop
       offset="0.5"
       stop-color="#ffbf70"
       id="stop11"
       style="stop-color:#024eff;stop-opacity:1;" />
    <stop
       offset="1"
       stop-color="#ffa348"
       id="stop12"
       style="stop-color:#2d6cff;stop-opacity:1;" />
  </linearGradient>
  <linearGradient
     id="g"
     gradientUnits="userSpaceOnUse"
     x1="37.999996"
     x2="88"
     y1="100.000008"
     y2="100.000008"
     gradientTransform="translate(10.519254,0.64099378)">
    <stop
       offset="0"
       stop-opacity="0"
       id="stop13" />
    <stop
       offset="1"
       stop-opacity="0.25098"
       id="stop14" />
  </linearGradient>
  <path
     d="m 22.519254,24.640994 v 83.999996 c 0,4.41797 3.582031,8 8,8 h 64 c 4.433594,0 7.999996,-3.5664 7.999996,-8 V 32.640994 c 0,-4.433594 -3.566402,-8 -7.999996,-8 z m 0,0"
     fill="url(#b)"
     id="path14"
     style="fill:url(#b)" />
  <path
     d="m 24.519254,38.640994 v 69.999996 c 0,3.3125 2.6875,6 6,6 h 64 c 4.433594,0 7.999996,-3.5664 7.999996,-8 V 46.640994 c 0,-4.433594 -3.566402,-8 -7.999996,-8 z m 0,0"
     fill="#ffa348"
     id="path15"
     style="fill:#5a86ed;fill-opacity:1" />
  <path
     d="m 24.519254,40.640994 v 63.999996 c 0,3.3125 2.6875,6 6,6 h 62 c 3.3125,0 6,-2.6875 6,-6 V 46.640994 c 0,-3.3125 -2.6875,-6 -6,-6 z m 0,0"
     fill="url(#d)"
     id="path20"
     style="fill:url(#d)" />
  <path
     d="m 98.519254,84.640994 c 0,3.3125 -2.6875,6 -6,6 h -68 v 9.999996 c 0,-3.312496 2.6875,-5.999996 6,-5.999996 h 62 c 3.3125,0 6,-2.6875 6,-6 z m 0,0"
     fill-opacity="0.14902"
     id="path21" />
  <path
     d="m 30.519254,14.640994 c -4.417969,0 -8,3.582031 -8,8 v 76 h 2 v -2 c 0,-3.3125 2.6875,-6 6,-6 h 64 c 4.433594,0 7.999996,-3.566406 7.999996,-8 v -60 c 0,-4.433594 -3.566402,-8 -7.999996,-8 z m 0,0"
     fill="url(#e)"
     id="path22"
     style="fill:url(#e)" />
  <path
     d="m 30.519254,12.640994 c -4.417969,0 -8,3.582031 -8,8 v 76 c 0,-4.417969 3.582031,-8 8,-8 h 64 c 4.433594,0 7.999996,-3.566406 7.999996,-8 v -60 c 0,-4.433594 -3.566402,-8 -7.999996,-8 z m 0,0"
     fill="url(#f)"
     id="path23"
     style="fill:url(#f)" />
  <path
     d="m 98.519254,96.640994 c 0,3.3125 -2.6875,5.999996 -6,5.999996 h -44 v 2 h 44 c 3.3125,0 6,-2.6875 6,-5.999996 z m 0,0"
     fill="url(#g)"
     id="path24"
     style="fill:url(#g)" />
  <path
     style="font-weight:bold;font-size:74.7402px;font-family:Cantarell;-inkscape-font-specification:'Cantarell Bold';fill:#ffffff;stroke-width:1.001;stroke-dasharray:none"
     d="m 47.790372,75.018075 c 8.311799,0 13.212039,-5.223315 13.212039,-14.048916 0,-16.390402 -17.057798,-10.806858 -17.057798,-18.191545 0,-2.701715 2.108965,-4.322744 5.830666,-4.322744 2.481134,0 5.458495,0.720458 8.249771,1.891201 l 1.612737,-8.645487 c -2.791276,-1.440914 -6.326892,-2.251428 -9.738452,-2.251428 -8.621941,0 -13.646237,5.133257 -13.646237,14.048915 0,16.300345 16.871712,10.086401 16.871712,18.101488 0,2.791772 -2.046936,4.502858 -5.458495,4.502858 -2.915333,0 -6.885148,-1.170744 -10.048594,-2.971887 L 35.8189,71.68596 c 3.473587,2.071314 7.877601,3.332115 11.971472,3.332115 z m 29.711586,0 c 8.3118,0 13.212039,-5.223315 13.212039,-14.048916 0,-16.390402 -17.057797,-10.806858 -17.057797,-18.191545 0,-2.701715 2.108964,-4.322744 5.830665,-4.322744 2.481135,0 5.458495,0.720458 8.249771,1.891201 l 1.612738,-8.645487 c -2.791277,-1.440914 -6.326893,-2.251428 -9.738452,-2.251428 -8.621941,0 -13.646238,5.133257 -13.646238,14.048915 0,16.300345 16.871712,10.086401 16.871712,18.101488 0,2.791772 -2.046935,4.502858 -5.458495,4.502858 -2.915332,0 -6.885147,-1.170744 -10.048593,-2.971887 l -1.798822,8.55543 c 3.473588,2.071314 7.877601,3.332115 11.971472,3.332115 z"
     id="text29"
     aria-label="ss" />
</svg>
